<svg xmlns="http://www.w3.org/2000/svg" xmlns:xlink="http://www.w3.org/1999/xlink" viewBox="0 0 57 65" fill="#fff" fill-rule="evenodd" stroke="#000" stroke-linecap="round" stroke-linejoin="round"><use xlink:href="#A" x=".5" y=".5"/><symbol id="A" overflow="visible"><g stroke="none" fill-rule="nonzero"><path d="M49.925 19.173L27.715 32v2.86H27.7v7.593h.014v8.678l16.637-9.53v-6.346L33.193 41.6v-6.414l16.746-9.532V44.84L27.715 57.56V64l27.693-16V16z" fill="#0091ce"/><path d="M0 48l27.715 16v-6.44l-22.2-12.72V19.186L0 16zm27.715 3.132V32L11.09 22.4l-.014.014V41.6z" fill="#0086bd"/><path d="M55.416 16.014V16l-27.7-16L0 16l5.505 3.186 22.2-12.814 22.2 12.8L55.416 16zm-27.7-3.2L11.09 22.4 27.715 32l16.624-9.6z" fill="#18a5e3"/></g></symbol></svg>